<svg id="Capa_1" enable-background="new 0 0 512 512" height="512" viewBox="0 0 512 512" width="512" xmlns="http://www.w3.org/2000/svg"><g><path d="m437.02 74.979c-48.351-48.351-112.638-74.979-181.02-74.979-68.381 0-132.669 26.628-181.02 74.979s-74.979 112.639-74.979 181.021 26.628 132.67 74.979 181.021 112.639 74.979 181.02 74.979 132.669-26.628 181.02-74.98c48.351-48.35 74.979-112.638 74.979-181.02s-26.628-132.67-74.979-181.021zm-14.142 347.899c-44.574 44.574-103.839 69.122-166.878 69.122s-122.304-24.548-166.878-69.122c-26.679-26.679-45.606-58.212-56.814-91.78h178.776c5.523 0 10-4.477 10-10s-4.477-10-10-10h-184.493c-18.401-77.173 2.436-161.881 62.532-221.977 44.573-44.573 103.838-69.121 166.877-69.121s122.304 24.548 166.877 69.121c60.096 60.096 80.932 144.804 62.531 221.977h-184.521c-5.523 0-10 4.477-10 10s4.477 10 10 10h178.805c-11.209 33.568-30.136 65.102-56.814 91.78z"/><path d="m245.986 113.77c0 5.523 4.477 10 10 10s10-4.477 10-10v-44.913c17.601.956 34.541 4.423 50.479 10.039l-6.62 15.998c-2.112 5.104.313 10.952 5.417 13.064 1.251.518 2.546.762 3.82.762 3.925 0 7.65-2.326 9.244-6.179l6.612-15.979c15.099 7.278 29.042 16.583 41.49 27.547l-31.643 31.62c-3.907 3.904-3.909 10.235-.005 14.142 1.953 1.955 4.513 2.932 7.074 2.932 2.558 0 5.116-.976 7.068-2.926l31.78-31.757c11.925 13.06 21.984 27.852 29.745 43.952l-15.979 6.612c-5.103 2.112-7.528 7.961-5.417 13.064 1.594 3.853 5.318 6.179 9.244 6.179 1.274 0 2.569-.245 3.82-.762l15.998-6.62c5.616 15.938 9.084 32.879 10.039 50.479h-44.912c-5.523 0-10 4.477-10 10s4.477 10 10 10h55.191c.282 0 .524-.015.744-.038 5.174-.382 9.256-4.691 9.256-9.963 0-111.629-90.817-202.446-202.445-202.446-111.613 0-202.417 90.817-202.417 202.446 0 5.523 4.477 10 10 10h55.191c5.523 0 10-4.477 10-10s-4.477-10-10-10h-44.913c.955-17.601 4.422-34.542 10.038-50.48l15.999 6.621c1.251.518 2.546.762 3.82.762 3.925 0 7.65-2.326 9.244-6.179 2.112-5.104-.313-10.952-5.417-13.064l-15.981-6.613c7.759-16.101 17.817-30.892 29.741-43.952l31.756 31.756c1.953 1.953 4.512 2.929 7.071 2.929s5.119-.976 7.071-2.929c3.905-3.905 3.905-10.237 0-14.143l-31.625-31.625c12.446-10.963 26.385-20.267 41.48-27.544l6.633 15.988c1.597 3.848 5.318 6.17 9.24 6.17 1.277 0 2.576-.246 3.829-.766 5.101-2.116 7.521-7.967 5.404-13.069l-6.634-15.99c15.935-5.616 32.872-9.083 50.469-10.039v44.914z"/><path d="m290.889 228.131c-.027-.066-.054-.133-.083-.199l-25.625-59.954c-1.574-3.682-5.191-6.07-9.196-6.07h-.001c-4.004.001-7.623 2.391-9.195 6.073l-25.597 59.954c-.028.065-.08.192-.106.257-2.297 5.712-4.467 11.108-4.467 18.07 0 21.723 17.66 39.396 39.367 39.396 21.723 0 39.396-17.673 39.396-39.396-.001-6.961-2.171-12.356-4.493-18.131zm-34.903 37.527c-10.679 0-19.367-8.701-19.367-19.395 0-2.934 1.023-5.632 3.009-10.571l16.363-38.327 16.383 38.328c1.977 4.916 3.008 7.624 3.008 10.569-.001 10.695-8.702 19.396-19.396 19.396z"/><path d="m272.739 392.538h-17.336l13.619-27.387c2.459-4.945.444-10.947-4.502-13.407-4.945-2.459-10.948-.443-13.407 4.502l-20.806 41.84c-3.241 6.511 1.683 14.49 8.982 14.453h17.308l-13.619 27.387c-2.459 4.945-.444 10.947 4.502 13.407 1.43.711 2.949 1.048 4.445 1.048 3.676 0 7.214-2.035 8.962-5.55l20.806-41.839c.187-.376.344-.772.483-1.168 2.22-6.375-2.68-13.286-9.437-13.286z"/><path d="m195.324 385.451h-35.49c-5.523 0-10 4.477-10 10s4.477 10 10 10h35.49c5.523 0 10-4.477 10-10s-4.477-10-10-10z"/><path d="m352.138 385.451h-35.49c-5.523 0-10 4.477-10 10s4.477 10 10 10h35.49c5.523 0 10-4.477 10-10s-4.477-10-10-10z"/><path d="m256.042 331.098c5.523 0 9.972-4.477 9.972-10s-4.505-10-10.028-10-10 4.477-10 10 4.477 10 10 10z"/></g></svg>